<svg width="40" height="40" viewBox="0 0 40 40" fill="none" xmlns="http://www.w3.org/2000/svg">
<circle cx="20" cy="20" r="20" fill="#3E95D1" fill-opacity="0.1"/>
<path d="M28.683 12.6391C26.5506 10.5141 23.7074 9.3335 20.7062 9.3335C14.4669 9.3335 9.41235 14.3705 9.41235 20.5881C9.41235 22.5557 9.9652 24.5233 10.9129 26.1761L9.33337 32.0002L15.3357 30.4261C16.9942 31.2918 18.8107 31.7641 20.7062 31.7641C26.9455 31.7641 32 26.727 32 20.5094C31.9211 17.5974 30.8154 14.7641 28.683 12.6391ZM26.1557 24.602C25.9187 25.2316 24.813 25.8613 24.2602 25.94C23.7863 26.0187 23.1545 26.0187 22.5227 25.8613C22.1278 25.7039 21.575 25.5465 20.9431 25.2316C18.0999 24.0511 16.2834 21.2178 16.1255 20.9816C15.9675 20.8242 14.9408 19.4863 14.9408 18.0696C14.9408 16.6529 15.6516 16.0233 15.8885 15.7085C16.1255 15.3937 16.4414 15.3937 16.6783 15.3937C16.8363 15.3937 17.0732 15.3937 17.2312 15.3937C17.3891 15.3937 17.6261 15.315 17.863 15.8659C18.0999 16.4168 18.6528 17.8335 18.7317 17.9122C18.8107 18.0696 18.8107 18.227 18.7317 18.3844C18.6528 18.5418 18.5738 18.6992 18.4158 18.8566C18.2579 19.0141 18.0999 19.2502 18.0209 19.3289C17.863 19.4863 17.705 19.6437 17.863 19.8798C18.0209 20.1946 18.5738 21.0603 19.4425 21.8474C20.5482 22.7918 21.417 23.1066 21.7329 23.2641C22.0488 23.4215 22.2068 23.3428 22.3647 23.1853C22.5227 23.0279 23.0755 22.3983 23.2335 22.0835C23.3914 21.7687 23.6284 21.8474 23.8653 21.9261C24.1022 22.0048 25.5238 22.7131 25.7608 22.8705C26.0767 23.0279 26.2346 23.1066 26.3136 23.1853C26.3926 23.4215 26.3926 23.9724 26.1557 24.602Z" fill="#007AC3"/>
</svg>
