<svg width="44" height="11" viewBox="0 0 44 11" fill="none" xmlns="http://www.w3.org/2000/svg">
<path d="M0.877588 0.364169H9.83182C10.0404 0.364169 10.2094 0.542924 10.2094 0.763428V2.62533C10.2094 2.87334 10.1076 3.10817 9.93045 3.27067L4.92318 7.7H9.83182C10.0404 7.7 10.2094 7.8755 10.2094 8.096V10.2335C10.2094 10.454 10.0404 10.6328 9.83182 10.6328H0.877588C0.669052 10.6328 0.5 10.454 0.5 10.2335V8.37467C0.5 8.12666 0.601779 7.89184 0.778964 7.72933L5.78624 3.3H0.877588C0.669052 3.3 0.5 3.11717 0.5 2.89667V0.763428C0.5 0.542924 0.669052 0.364169 0.877588 0.364169ZM16.4512 0C17.4865 0 18.4096 0.246188 19.1802 0.696079C19.9508 1.14597 20.5689 1.79957 20.9943 2.61438C21.4198 3.42919 21.6526 4.40523 21.6526 5.5C21.6526 6.59477 21.4198 7.57081 20.9943 8.38562C20.5689 9.20043 19.9508 9.85403 19.1802 10.3039C18.4096 10.7538 17.4865 11 16.4512 11C15.4158 11 14.4928 10.7538 13.7222 10.3039C12.9516 9.85403 12.3335 9.20043 11.908 8.38562C11.4825 7.57081 11.2497 6.59477 11.2497 5.5C11.2497 4.40523 11.4825 3.42919 11.908 2.61438C12.3335 1.79957 12.9516 1.14597 13.7222 0.696079C14.4928 0.246188 15.4158 0 16.4512 0ZM16.4512 2.93333C15.9559 2.93333 15.5211 3.04396 15.1615 3.24964C14.8019 3.45533 14.5175 3.75607 14.323 4.13632C14.1284 4.51657 14.0238 4.97631 14.0238 5.5C14.0238 6.02369 14.1284 6.48343 14.323 6.86368C14.5175 7.24393 14.8019 7.54468 15.1615 7.75036C15.5211 7.95604 15.9559 8.06667 16.4512 8.06667C16.9464 8.06667 17.3812 7.95604 17.7408 7.75036C18.1004 7.54468 18.3849 7.24393 18.5794 6.86368C18.7739 6.48343 18.8785 6.02369 18.8785 5.5C18.8785 4.97631 18.7739 4.51657 18.5794 4.13632C18.3849 3.75607 18.1004 3.45533 17.7408 3.24964C17.3812 3.04396 16.9464 2.93333 16.4512 2.93333ZM27.5476 0C28.583 0 29.5061 0.246188 30.2766 0.696079C31.0472 1.14597 31.6653 1.79957 32.0908 2.61438C32.5163 3.42919 32.7491 4.40523 32.7491 5.5C32.7491 6.59477 32.5163 7.57081 32.0908 8.38562C31.6653 9.20043 31.0472 9.85403 30.2766 10.3039C29.5061 10.7538 28.583 11 27.5476 11C26.5123 11 25.5892 10.7538 24.8187 10.3039C24.0481 9.85403 23.4299 9.20043 23.0045 8.38562C22.579 7.57081 22.3462 6.59477 22.3462 5.5C22.3462 4.40523 22.579 3.42919 23.0045 2.61438C23.4299 1.79957 24.0481 1.14597 24.8187 0.696079C25.5892 0.246188 26.5123 0 27.5476 0ZM27.5476 2.93333C27.0524 2.93333 26.6176 3.04396 26.258 3.24964C25.8984 3.45533 25.614 3.75607 25.4194 4.13632C25.2249 4.51657 25.1203 4.97631 25.1203 5.5C25.1203 6.02369 25.2249 6.48343 25.4194 6.86368C25.614 7.24393 25.8984 7.54468 26.258 7.75036C26.6176 7.95604 27.0524 8.06667 27.5476 8.06667C28.0429 8.06667 28.4777 7.95604 28.8373 7.75036C29.1969 7.54468 29.4813 7.24393 29.6759 6.86368C29.8704 6.48343 29.975 6.02369 29.975 5.5C29.975 4.97631 29.8704 4.51657 29.6759 4.13632C29.4813 3.75607 29.1969 3.45533 28.8373 3.24964C28.4777 3.04396 28.0429 2.93333 27.5476 2.93333ZM43.5 0.764699V10.2334C43.5 10.4539 43.3309 10.6326 43.1224 10.6326H41.3627C41.1282 10.6326 40.9061 10.525 40.7524 10.3377L36.5635 5.04368V10.2334C36.5635 10.4539 36.3906 10.6326 36.1821 10.6326H34.1658C33.9573 10.6326 33.7882 10.4539 33.7882 10.2334V0.764699C33.7882 0.544182 33.9573 0.365418 34.1658 0.365418H35.9255C36.1601 0.365418 36.3821 0.473066 36.5358 0.660464L40.7247 5.95632V0.764699C40.7247 0.544182 40.8907 0.365418 41.0992 0.365418H43.1224C43.3309 0.365418 43.5 0.544182 43.5 0.764699Z" fill="black"/>
</svg>
