<svg width="16" height="16" viewBox="0 0 16 16" fill="none" xmlns="http://www.w3.org/2000/svg">
<path opacity="0.8" d="M1.804 16L4.884 0.599999H10.428C11.5867 0.599999 12.5767 0.768666 13.398 1.106C14.2193 1.44333 14.8427 1.942 15.268 2.602C15.708 3.24733 15.928 4.032 15.928 4.956C15.928 6.276 15.6347 7.398 15.048 8.322C14.476 9.23133 13.6547 9.928 12.584 10.412C11.5133 10.896 10.2447 11.138 8.778 11.138H3.696L4.554 10.368L3.432 16H1.804ZM0.066 13.14L0.264 12.172H9.152L8.954 13.14H0.066ZM4.532 10.5L3.96 9.708H8.8C10.5453 9.708 11.8947 9.31933 12.848 8.542C13.816 7.76467 14.3 6.62067 14.3 5.11C14.3 4.098 13.9553 3.328 13.266 2.8C12.5767 2.272 11.5867 2.008 10.296 2.008H5.522L6.38 1.216L4.532 10.5Z" fill="black"/>
</svg>
