<svg width="36" height="35" viewBox="0 0 36 35" fill="none" xmlns="http://www.w3.org/2000/svg">
<path d="M5.35 34.999V-0.000978947H20.5C25.1667 -0.000978947 28.8667 0.982355 31.6 2.94902C34.3333 4.91569 35.7 7.86569 35.7 11.799C35.7 15.699 34.3333 18.6324 31.6 20.599C28.8667 22.5657 25.1667 23.549 20.5 23.549H9.85L13.5 19.949V34.999H5.35ZM13.5 20.799L9.85 17.199H20.45C22.6833 17.199 24.4167 16.749 25.65 15.849C26.8833 14.9157 27.5 13.5824 27.5 11.849C27.5 10.149 26.8833 8.84902 25.65 7.94902C24.4167 7.04902 22.6833 6.59902 20.45 6.59902H9.85L13.5 2.74902V20.799ZM0.5 30.499V26.349H24.3V30.499H0.5Z" fill="#FD9C42"/>
</svg>
