<svg width="315" height="420" viewBox="0 0 315 420" fill="none" xmlns="http://www.w3.org/2000/svg">
<g opacity="0.6">
<path d="M302.5 315H307.5C309 315 310 314 310 312.5V287.5C310 286 309 285 307.5 285H282.5C281 285 280 286 280 287.5V315" stroke="#FFFDF3" stroke-width="2" stroke-linecap="round" stroke-linejoin="round"/>
<path d="M280 292.5H270L260 302.5V312.5C260 314 261 315 262.5 315H266.4" stroke="#FFFDF3" stroke-width="2" stroke-linecap="round" stroke-linejoin="round"/>
<path d="M297.5 320C294.739 320 292.5 317.761 292.5 315C292.5 312.239 294.739 310 297.5 310C300.261 310 302.5 312.239 302.5 315C302.5 317.761 300.261 320 297.5 320Z" stroke="#FFFDF3" stroke-width="2" stroke-linecap="round" stroke-linejoin="round"/>
<path d="M277.5 315H292.5" stroke="#FFFDF3" stroke-width="2" stroke-linecap="round" stroke-linejoin="round"/>
<path d="M272.5 320C269.739 320 267.5 317.761 267.5 315C267.5 312.239 269.739 310 272.5 310C275.261 310 277.5 312.239 277.5 315C277.5 317.761 275.261 320 272.5 320Z" stroke="#FFFDF3" stroke-width="2" stroke-linecap="round" stroke-linejoin="round"/>
<path d="M201.25 295L183.542 312.708C181.812 314.437 179.021 314.437 177.292 312.708C176.881 312.298 176.555 311.811 176.333 311.275C176.111 310.739 175.996 310.164 175.996 309.583C175.996 309.003 176.111 308.428 176.333 307.892C176.555 307.356 176.881 306.869 177.292 306.458L195 288.75" stroke="#FFFDF3" stroke-width="2" stroke-linecap="round" stroke-linejoin="round"/>
<path d="M206.75 301.25L215.833 292.167" stroke="#FFFDF3" stroke-width="2" stroke-linecap="round" stroke-linejoin="round"/>
<path d="M213.562 294.375L210.958 291.771C209.708 290.521 209.021 288.854 209.021 287.083V285.292L203.354 279.583C202.278 278.501 201 277.643 199.591 277.056C198.182 276.47 196.672 276.168 195.146 276.167H188.75L190.667 277.875C192.028 279.082 193.118 280.564 193.865 282.223C194.612 283.882 194.999 285.681 195 287.5V290.75L199.167 294.917H204.312L209.021 298.896" stroke="#FFFDF3" stroke-width="2" stroke-linecap="round" stroke-linejoin="round"/>
<path d="M201.25 370.417L209.583 378.75" stroke="#FFFDF3" stroke-width="2" stroke-linecap="round" stroke-linejoin="round"/>
<path d="M197.083 374.583L188.125 365.625C187.184 364.689 185.911 364.163 184.583 364.163C183.256 364.163 181.983 364.689 181.042 365.625L175.625 371.042C174.689 371.983 174.163 373.256 174.163 374.583C174.163 375.911 174.689 377.184 175.625 378.125L184.583 387.083" stroke="#FFFDF3" stroke-width="2" stroke-linecap="round" stroke-linejoin="round"/>
<path d="M186.667 372.5L190.833 368.333" stroke="#FFFDF3" stroke-width="2" stroke-linecap="round" stroke-linejoin="round"/>
<path d="M174.167 405.833L185.625 402.708L214.104 374.229C215.209 373.124 215.83 371.625 215.83 370.062C215.83 368.5 215.209 367.001 214.104 365.896C212.999 364.791 211.5 364.17 209.938 364.17C208.375 364.17 206.876 364.791 205.771 365.896L177.292 394.375L174.167 405.833Z" stroke="#FFFDF3" stroke-width="2" stroke-linecap="round" stroke-linejoin="round"/>
<path d="M207.5 393.333L211.667 389.167" stroke="#FFFDF3" stroke-width="2" stroke-linecap="round" stroke-linejoin="round"/>
<path d="M205.417 382.917L214.375 391.875C216.333 393.833 216.333 397 214.375 398.958L208.958 404.375C207 406.333 203.833 406.333 201.875 404.375L192.917 395.417" stroke="#FFFDF3" stroke-width="2" stroke-linecap="round" stroke-linejoin="round"/>
<path d="M297.5 374.167H272.5C270.199 374.167 268.333 376.032 268.333 378.333V411.667C268.333 413.968 270.199 415.833 272.5 415.833H297.5C299.801 415.833 301.667 413.968 301.667 411.667V378.333C301.667 376.032 299.801 374.167 297.5 374.167Z" stroke="#FFFDF3" stroke-width="2" stroke-linecap="round" stroke-linejoin="round"/>
<path d="M276.667 382.5H293.333" stroke="#FFFDF3" stroke-width="2" stroke-linecap="round" stroke-linejoin="round"/>
<path d="M293.333 399.167V407.5" stroke="#FFFDF3" stroke-width="2" stroke-linecap="round" stroke-linejoin="round"/>
<path d="M293.333 390.833H293.354" stroke="#FFFDF3" stroke-width="2" stroke-linecap="round" stroke-linejoin="round"/>
<path d="M285 390.833H285.021" stroke="#FFFDF3" stroke-width="2" stroke-linecap="round" stroke-linejoin="round"/>
<path d="M276.667 390.833H276.687" stroke="#FFFDF3" stroke-width="2" stroke-linecap="round" stroke-linejoin="round"/>
<path d="M285 399.167H285.021" stroke="#FFFDF3" stroke-width="2" stroke-linecap="round" stroke-linejoin="round"/>
<path d="M276.667 399.167H276.687" stroke="#FFFDF3" stroke-width="2" stroke-linecap="round" stroke-linejoin="round"/>
<path d="M285 407.5H285.021" stroke="#FFFDF3" stroke-width="2" stroke-linecap="round" stroke-linejoin="round"/>
<path d="M276.667 407.5H276.687" stroke="#FFFDF3" stroke-width="2" stroke-linecap="round" stroke-linejoin="round"/>
<path d="M299.583 209.167C302.687 206.125 305.833 202.479 305.833 197.708C305.833 194.669 304.626 191.755 302.477 189.606C300.328 187.457 297.414 186.25 294.375 186.25C290.708 186.25 288.125 187.292 285 190.417C281.875 187.292 279.292 186.25 275.625 186.25C272.586 186.25 269.672 187.457 267.523 189.606C265.374 191.755 264.167 194.669 264.167 197.708C264.167 202.5 267.292 206.146 270.417 209.167L285 223.75L299.583 209.167Z" stroke="#FFFDF3" stroke-width="2" stroke-linecap="round" stroke-linejoin="round"/>
<path d="M285 190.417L278.833 196.583C278.41 197.004 278.074 197.503 277.845 198.054C277.616 198.605 277.498 199.195 277.498 199.792C277.498 200.388 277.616 200.979 277.845 201.529C278.074 202.08 278.41 202.58 278.833 203C280.542 204.708 283.271 204.771 285.083 203.146L289.396 199.188C290.477 198.207 291.884 197.663 293.344 197.663C294.803 197.663 296.211 198.207 297.292 199.188L303.458 204.729" stroke="#FFFDF3" stroke-width="2" stroke-linecap="round" stroke-linejoin="round"/>
<path d="M297.5 211.25L293.333 207.083" stroke="#FFFDF3" stroke-width="2" stroke-linecap="round" stroke-linejoin="round"/>
<path d="M291.25 217.5L287.083 213.333" stroke="#FFFDF3" stroke-width="2" stroke-linecap="round" stroke-linejoin="round"/>
<path d="M207.5 202.917V192.5C207.5 191.395 207.061 190.335 206.28 189.554C205.498 188.772 204.438 188.333 203.333 188.333C202.228 188.333 201.168 188.772 200.387 189.554C199.606 190.335 199.167 191.395 199.167 192.5" stroke="#FFFDF3" stroke-width="2" stroke-linecap="round" stroke-linejoin="round"/>
<path d="M199.167 200.833V188.333C199.167 187.228 198.728 186.169 197.946 185.387C197.165 184.606 196.105 184.167 195 184.167C193.895 184.167 192.835 184.606 192.054 185.387C191.272 186.169 190.833 187.228 190.833 188.333V192.5" stroke="#FFFDF3" stroke-width="2" stroke-linecap="round" stroke-linejoin="round"/>
<path d="M190.833 201.875V192.5C190.833 191.395 190.394 190.335 189.613 189.554C188.832 188.772 187.772 188.333 186.667 188.333C185.562 188.333 184.502 188.772 183.72 189.554C182.939 190.335 182.5 191.395 182.5 192.5V209.167" stroke="#FFFDF3" stroke-width="2" stroke-linecap="round" stroke-linejoin="round"/>
<path d="M207.5 196.667C207.5 195.562 207.939 194.502 208.72 193.72C209.502 192.939 210.562 192.5 211.667 192.5C212.772 192.5 213.832 192.939 214.613 193.72C215.394 194.502 215.833 195.562 215.833 196.667V209.167C215.833 213.587 214.077 217.826 210.952 220.952C207.826 224.077 203.587 225.833 199.167 225.833H195C189.167 225.833 185.625 224.042 182.521 220.958L175.021 213.458C174.304 212.664 173.92 211.625 173.948 210.556C173.976 209.487 174.415 208.469 175.172 207.715C175.93 206.96 176.949 206.525 178.018 206.5C179.088 206.476 180.125 206.864 180.917 207.583L184.583 211.25" stroke="#FFFDF3" stroke-width="2" stroke-linecap="round" stroke-linejoin="round"/>
<path d="M219.997 116.377C219.942 115.844 219.775 115.399 219.386 115.088C219.331 114.422 219.219 112.555 218.608 111.088C218.497 110.822 217.831 109.8 216.886 109.8H216.831C216.72 109.444 216.553 109.089 216.386 108.733C216.22 108.377 216.108 108.066 215.997 107.8C214.775 105.178 210.886 99 200.665 99C199.72 99 198.776 99.0444 197.776 99.1333C187.443 100.2 182.221 102.822 180.721 107.622C180.61 108.022 180.443 108.689 180.276 109.489C179.776 111.844 178.554 117.266 177.054 117.933C176.443 118.155 171.61 120.066 170.499 121.71C169.443 123.31 170.11 125.177 172.054 126.332C176.887 129.221 180.665 130.466 184.665 130.466C186.998 130.466 189.498 130.066 193.054 129.132C193.276 129.088 193.554 128.999 193.831 128.91C198.498 127.71 212.664 123.977 217.942 119.844C219.275 118.822 220.053 117.488 219.997 116.377ZM215.108 109.089C215.386 109.711 215.608 110.333 215.775 110.866C216.831 114.644 212.831 117.533 203.942 119.399C201.498 119.933 194.109 121.31 189.665 121.31C187.72 121.31 187.165 121.044 186.998 120.91C186.832 120.555 186.776 118.733 187.332 115.177C187.776 112.244 188.387 109.577 188.832 108.777C189.832 106.911 193.776 105 198.053 104.244C199.776 103.933 202.998 103.622 205.887 103.622C207.775 103.622 209.164 103.755 209.998 104.022C212.386 104.733 214.164 107.089 215.108 109.089ZM181.554 109.711C181.721 108.955 181.887 108.244 181.998 107.889C183.332 103.533 188.109 101.222 197.887 100.2C198.831 100.111 199.72 100.067 200.609 100.067C205.164 100.067 208.386 101.4 210.553 103.044C210.498 103.044 210.498 103.044 210.442 103C209.442 102.689 207.886 102.555 205.831 102.555C202.831 102.555 199.553 102.867 197.72 103.178C192.998 103.978 188.776 106.155 187.554 108.333C186.887 109.533 186.276 112.822 185.943 115.266C185.165 120.777 185.721 121.355 185.887 121.533C186.443 122.11 187.609 122.377 189.609 122.377C194.165 122.377 201.72 120.955 204.22 120.422C205.775 120.11 209.442 119.31 212.497 117.799C215.942 116.066 217.553 113.844 217.164 111.266C217.22 111.311 217.22 111.355 217.22 111.4C217.831 112.777 217.942 114.688 217.942 115.177C216.886 117.533 210.386 120.377 204.442 122.066C195.887 124.466 189.443 125.221 185.276 124.288C182.61 123.71 177.054 121.844 177.11 119.933C177.11 119.177 177.332 118.999 177.443 118.955C177.499 118.955 177.499 118.91 177.554 118.91C179.554 118.11 180.61 114.111 181.554 109.711ZM217.053 119.088C213.72 121.71 205.775 124.688 193.443 127.888C193.109 127.977 192.831 128.066 192.609 128.11C189.22 128.999 186.832 129.399 184.665 129.399C180.943 129.399 177.387 128.243 172.832 125.488C171.388 124.644 170.943 123.355 171.61 122.244C172.165 121.444 174.165 120.422 175.776 119.666C175.776 119.755 175.776 119.844 175.776 119.888C175.665 123.221 184.554 125.221 184.943 125.31C186.165 125.577 187.609 125.71 189.22 125.71C193.331 125.71 198.553 124.821 204.887 123.044C209.053 121.888 216.108 119.31 218.608 116.511C218.664 117.177 218.219 118.155 217.053 119.088Z" fill="#FFFDF3"/>
<path d="M305.833 23.0834V25C305.831 29.4926 304.376 33.8639 301.686 37.4622C298.996 41.0604 295.215 43.6927 290.907 44.9665C286.599 46.2403 281.994 46.0873 277.78 44.5304C273.566 42.9735 269.968 40.0961 267.523 36.3273C265.078 32.5584 263.916 28.1002 264.212 23.6174C264.507 19.1346 266.244 14.8674 269.163 11.4523C272.082 8.03717 276.027 5.65709 280.409 4.66701C284.791 3.67694 289.376 4.12991 293.479 5.95838" stroke="#FFFDF3" stroke-width="2" stroke-linecap="round" stroke-linejoin="round"/>
<path d="M305.833 8.33325L285 29.1874L278.75 22.9374" stroke="#FFFDF3" stroke-width="2" stroke-linecap="round" stroke-linejoin="round"/>
<path d="M209.583 8.33325H180.417C178.115 8.33325 176.25 10.1987 176.25 12.4999V41.6666C176.25 43.9678 178.115 45.8333 180.417 45.8333H209.583C211.885 45.8333 213.75 43.9678 213.75 41.6666V12.4999C213.75 10.1987 211.885 8.33325 209.583 8.33325Z" stroke="#FFFDF3" stroke-width="2" stroke-linecap="round" stroke-linejoin="round"/>
<path d="M203.333 4.16675V12.5001" stroke="#FFFDF3" stroke-width="2" stroke-linecap="round" stroke-linejoin="round"/>
<path d="M186.667 4.16675V12.5001" stroke="#FFFDF3" stroke-width="2" stroke-linecap="round" stroke-linejoin="round"/>
<path d="M176.25 20.8333H213.75" stroke="#FFFDF3" stroke-width="2" stroke-linecap="round" stroke-linejoin="round"/>
<path d="M186.667 29.1667H186.688" stroke="#FFFDF3" stroke-width="2" stroke-linecap="round" stroke-linejoin="round"/>
<path d="M195 29.1667H195.021" stroke="#FFFDF3" stroke-width="2" stroke-linecap="round" stroke-linejoin="round"/>
<path d="M203.333 29.1667H203.354" stroke="#FFFDF3" stroke-width="2" stroke-linecap="round" stroke-linejoin="round"/>
<path d="M186.667 37.5H186.688" stroke="#FFFDF3" stroke-width="2" stroke-linecap="round" stroke-linejoin="round"/>
<path d="M195 37.5H195.021" stroke="#FFFDF3" stroke-width="2" stroke-linecap="round" stroke-linejoin="round"/>
<path d="M203.333 37.5H203.354" stroke="#FFFDF3" stroke-width="2" stroke-linecap="round" stroke-linejoin="round"/>
<path d="M285 135.833C285 135.833 301.667 127.5 301.667 115V100.417L285 94.1667L268.333 100.417V115C268.333 127.5 285 135.833 285 135.833Z" stroke="#FFFDF3" stroke-width="2" stroke-linecap="round" stroke-linejoin="round"/>
<path d="M132.5 315H137.5C139 315 140 314 140 312.5V287.5C140 286 139 285 137.5 285H112.5C111 285 110 286 110 287.5V315" stroke="#FFFDF3" stroke-width="2" stroke-linecap="round" stroke-linejoin="round"/>
<path d="M110 292.5H100L90 302.5V312.5C90 314 91 315 92.5 315H96.4001" stroke="#FFFDF3" stroke-width="2" stroke-linecap="round" stroke-linejoin="round"/>
<path d="M127.5 320C124.739 320 122.5 317.761 122.5 315C122.5 312.239 124.739 310 127.5 310C130.261 310 132.5 312.239 132.5 315C132.5 317.761 130.261 320 127.5 320Z" stroke="#FFFDF3" stroke-width="2" stroke-linecap="round" stroke-linejoin="round"/>
<path d="M107.5 315H122.5" stroke="#FFFDF3" stroke-width="2" stroke-linecap="round" stroke-linejoin="round"/>
<path d="M102.5 320C99.7386 320 97.5 317.761 97.5 315C97.5 312.239 99.7386 310 102.5 310C105.261 310 107.5 312.239 107.5 315C107.5 317.761 105.261 320 102.5 320Z" stroke="#FFFDF3" stroke-width="2" stroke-linecap="round" stroke-linejoin="round"/>
<path d="M31.25 295L13.5417 312.708C11.8125 314.437 9.02082 314.437 7.29165 312.708C6.88094 312.298 6.55512 311.811 6.33282 311.275C6.11052 310.739 5.99609 310.164 5.99609 309.583C5.99609 309.003 6.11052 308.428 6.33282 307.892C6.55512 307.356 6.88094 306.869 7.29165 306.458L25 288.75" stroke="#FFFDF3" stroke-width="2" stroke-linecap="round" stroke-linejoin="round"/>
<path d="M36.75 301.25L45.8333 292.167" stroke="#FFFDF3" stroke-width="2" stroke-linecap="round" stroke-linejoin="round"/>
<path d="M43.5625 294.375L40.9583 291.771C39.7083 290.521 39.0208 288.854 39.0208 287.083V285.292L33.3542 279.583C32.2784 278.501 30.9995 277.643 29.5909 277.056C28.1822 276.47 26.6716 276.168 25.1458 276.167H18.75L20.6667 277.875C22.028 279.082 23.1181 280.564 23.865 282.223C24.612 283.882 24.9988 285.681 25 287.5V290.75L29.1667 294.917H34.3125L39.0208 298.896" stroke="#FFFDF3" stroke-width="2" stroke-linecap="round" stroke-linejoin="round"/>
<path d="M31.25 370.417L39.5833 378.75" stroke="#FFFDF3" stroke-width="2" stroke-linecap="round" stroke-linejoin="round"/>
<path d="M27.0833 374.583L18.125 365.625C17.1841 364.689 15.9107 364.163 14.5833 364.163C13.2559 364.163 11.9826 364.689 11.0417 365.625L5.62502 371.042C4.68868 371.983 4.16302 373.256 4.16302 374.583C4.16302 375.911 4.68868 377.184 5.62502 378.125L14.5833 387.083" stroke="#FFFDF3" stroke-width="2" stroke-linecap="round" stroke-linejoin="round"/>
<path d="M16.6667 372.5L20.8334 368.333" stroke="#FFFDF3" stroke-width="2" stroke-linecap="round" stroke-linejoin="round"/>
<path d="M4.16669 405.833L15.625 402.708L44.1042 374.229C45.2093 373.124 45.8301 371.625 45.8301 370.062C45.8301 368.5 45.2093 367.001 44.1042 365.896C42.9991 364.791 41.5003 364.17 39.9375 364.17C38.3747 364.17 36.8759 364.791 35.7709 365.896L7.29169 394.375L4.16669 405.833Z" stroke="#FFFDF3" stroke-width="2" stroke-linecap="round" stroke-linejoin="round"/>
<path d="M37.5 393.333L41.6667 389.167" stroke="#FFFDF3" stroke-width="2" stroke-linecap="round" stroke-linejoin="round"/>
<path d="M35.4167 382.917L44.375 391.875C46.3334 393.833 46.3334 397 44.375 398.958L38.9584 404.375C37 406.333 33.8334 406.333 31.875 404.375L22.9167 395.417" stroke="#FFFDF3" stroke-width="2" stroke-linecap="round" stroke-linejoin="round"/>
<path d="M127.5 374.167H102.5C100.199 374.167 98.3333 376.032 98.3333 378.333V411.667C98.3333 413.968 100.199 415.833 102.5 415.833H127.5C129.801 415.833 131.667 413.968 131.667 411.667V378.333C131.667 376.032 129.801 374.167 127.5 374.167Z" stroke="#FFFDF3" stroke-width="2" stroke-linecap="round" stroke-linejoin="round"/>
<path d="M106.667 382.5H123.333" stroke="#FFFDF3" stroke-width="2" stroke-linecap="round" stroke-linejoin="round"/>
<path d="M123.333 399.167V407.5" stroke="#FFFDF3" stroke-width="2" stroke-linecap="round" stroke-linejoin="round"/>
<path d="M123.333 390.833H123.354" stroke="#FFFDF3" stroke-width="2" stroke-linecap="round" stroke-linejoin="round"/>
<path d="M115 390.833H115.021" stroke="#FFFDF3" stroke-width="2" stroke-linecap="round" stroke-linejoin="round"/>
<path d="M106.667 390.833H106.688" stroke="#FFFDF3" stroke-width="2" stroke-linecap="round" stroke-linejoin="round"/>
<path d="M115 399.167H115.021" stroke="#FFFDF3" stroke-width="2" stroke-linecap="round" stroke-linejoin="round"/>
<path d="M106.667 399.167H106.688" stroke="#FFFDF3" stroke-width="2" stroke-linecap="round" stroke-linejoin="round"/>
<path d="M115 407.5H115.021" stroke="#FFFDF3" stroke-width="2" stroke-linecap="round" stroke-linejoin="round"/>
<path d="M106.667 407.5H106.688" stroke="#FFFDF3" stroke-width="2" stroke-linecap="round" stroke-linejoin="round"/>
<path d="M129.583 209.167C132.688 206.125 135.833 202.479 135.833 197.708C135.833 194.669 134.626 191.755 132.477 189.606C130.328 187.457 127.414 186.25 124.375 186.25C120.708 186.25 118.125 187.292 115 190.417C111.875 187.292 109.292 186.25 105.625 186.25C102.586 186.25 99.6716 187.457 97.5228 189.606C95.3739 191.755 94.1667 194.669 94.1667 197.708C94.1667 202.5 97.2917 206.146 100.417 209.167L115 223.75L129.583 209.167Z" stroke="#FFFDF3" stroke-width="2" stroke-linecap="round" stroke-linejoin="round"/>
<path d="M115 190.417L108.833 196.583C108.41 197.004 108.074 197.503 107.845 198.054C107.616 198.605 107.498 199.195 107.498 199.792C107.498 200.388 107.616 200.979 107.845 201.529C108.074 202.08 108.41 202.58 108.833 203C110.542 204.708 113.271 204.771 115.083 203.146L119.396 199.188C120.477 198.207 121.884 197.663 123.344 197.663C124.803 197.663 126.211 198.207 127.292 199.188L133.458 204.729" stroke="#FFFDF3" stroke-width="2" stroke-linecap="round" stroke-linejoin="round"/>
<path d="M127.5 211.25L123.333 207.083" stroke="#FFFDF3" stroke-width="2" stroke-linecap="round" stroke-linejoin="round"/>
<path d="M121.25 217.5L117.083 213.333" stroke="#FFFDF3" stroke-width="2" stroke-linecap="round" stroke-linejoin="round"/>
<path d="M37.5 202.917V192.5C37.5 191.395 37.061 190.335 36.2796 189.554C35.4982 188.772 34.4384 188.333 33.3334 188.333C32.2283 188.333 31.1685 188.772 30.3871 189.554C29.6057 190.335 29.1667 191.395 29.1667 192.5" stroke="#FFFDF3" stroke-width="2" stroke-linecap="round" stroke-linejoin="round"/>
<path d="M29.1666 200.833V188.333C29.1666 187.228 28.7277 186.169 27.9463 185.387C27.1649 184.606 26.105 184.167 25 184.167C23.8949 184.167 22.8351 184.606 22.0537 185.387C21.2723 186.169 20.8333 187.228 20.8333 188.333V192.5" stroke="#FFFDF3" stroke-width="2" stroke-linecap="round" stroke-linejoin="round"/>
<path d="M20.8333 201.875V192.5C20.8333 191.395 20.3943 190.335 19.6129 189.554C18.8315 188.772 17.7717 188.333 16.6667 188.333C15.5616 188.333 14.5018 188.772 13.7204 189.554C12.939 190.335 12.5 191.395 12.5 192.5V209.167" stroke="#FFFDF3" stroke-width="2" stroke-linecap="round" stroke-linejoin="round"/>
<path d="M37.5 196.667C37.5 195.562 37.939 194.502 38.7204 193.72C39.5018 192.939 40.5616 192.5 41.6667 192.5C42.7717 192.5 43.8315 192.939 44.6129 193.72C45.3943 194.502 45.8333 195.562 45.8333 196.667V209.167C45.8333 213.587 44.0774 217.826 40.9518 220.952C37.8262 224.077 33.5869 225.833 29.1667 225.833H25C19.1667 225.833 15.625 224.042 12.5208 220.958L5.02082 213.458C4.30402 212.664 3.91996 211.625 3.94817 210.556C3.97637 209.487 4.41467 208.469 5.17233 207.715C5.92998 206.96 6.94895 206.525 8.01827 206.5C9.08758 206.476 10.1253 206.864 10.9167 207.583L14.5833 211.25" stroke="#FFFDF3" stroke-width="2" stroke-linecap="round" stroke-linejoin="round"/>
<path d="M49.9972 116.377C49.9417 115.844 49.775 115.399 49.3861 115.088C49.3306 114.422 49.2195 112.555 48.6084 111.088C48.4973 110.822 47.8306 109.8 46.8862 109.8H46.8307C46.7195 109.444 46.5529 109.089 46.3862 108.733C46.2196 108.377 46.1085 108.066 45.9973 107.8C44.7752 105.178 40.8864 99 30.6645 99C29.7201 99 28.7757 99.0444 27.7757 99.1333C17.4427 100.2 12.2207 102.822 10.7207 107.622C10.6096 108.022 10.4429 108.689 10.2763 109.489C9.77629 111.844 8.55411 117.266 7.05416 117.933C6.44307 118.155 1.60989 120.066 0.498815 121.71C-0.556707 123.31 0.109938 125.177 2.05432 126.332C6.8875 129.221 10.6652 130.466 14.665 130.466C16.9983 130.466 19.4982 130.066 23.0536 129.132C23.2759 129.088 23.5536 128.999 23.8314 128.91C28.4979 127.71 42.6641 123.977 47.9417 119.844C49.275 118.822 50.0528 117.488 49.9972 116.377ZM45.1085 109.089C45.3862 109.711 45.6085 110.333 45.7751 110.866C46.8307 114.644 42.8308 117.533 33.9422 119.399C31.4978 119.933 24.1092 121.31 19.6649 121.31C17.7205 121.31 17.1649 121.044 16.9983 120.91C16.8316 120.555 16.7761 118.733 17.3316 115.177C17.776 112.244 18.3871 109.577 18.8316 108.777C19.8315 106.911 23.7758 105 28.0535 104.244C29.7756 103.933 32.9978 103.622 35.8866 103.622C37.7754 103.622 39.1642 103.755 39.9975 104.022C42.3863 104.733 44.1641 107.089 45.1085 109.089ZM11.554 109.711C11.7207 108.955 11.8873 108.244 11.9984 107.889C13.3317 103.533 18.1094 101.222 27.8868 100.2C28.8312 100.111 29.7201 100.067 30.6089 100.067C35.1644 100.067 38.3865 101.4 40.5531 103.044C40.4975 103.044 40.4975 103.044 40.442 103C39.442 102.689 37.8865 102.555 35.831 102.555C32.8311 102.555 29.5534 102.867 27.7202 103.178C22.9981 103.978 18.776 106.155 17.5538 108.333C16.8872 109.533 16.2761 112.822 15.9428 115.266C15.165 120.777 15.7205 121.355 15.8872 121.533C16.4427 122.11 17.6094 122.377 19.6093 122.377C24.1647 122.377 31.72 120.955 34.2199 120.422C35.7754 120.11 39.442 119.31 42.4975 117.799C45.9418 116.066 47.5528 113.844 47.164 111.266C47.2195 111.311 47.2195 111.355 47.2195 111.4C47.8306 112.777 47.9417 114.688 47.9417 115.177C46.8862 117.533 40.3864 120.377 34.4422 122.066C25.8869 124.466 19.4426 125.221 15.2761 124.288C12.6095 123.71 7.05416 121.844 7.10971 119.933C7.10971 119.177 7.33193 118.999 7.44303 118.955C7.49859 118.955 7.49859 118.91 7.55414 118.91C9.55408 118.11 10.6096 114.111 11.554 109.711ZM47.0529 119.088C43.7196 121.71 35.7755 124.688 23.4425 127.888C23.1092 127.977 22.8314 128.066 22.6092 128.11C19.2204 128.999 16.8316 129.399 14.665 129.399C10.9429 129.399 7.38748 128.243 2.83207 125.488C1.38768 124.644 0.943245 123.355 1.60989 122.244C2.16543 121.444 4.16536 120.422 5.77642 119.666C5.77642 119.755 5.77642 119.844 5.77642 119.888C5.66531 123.221 14.5539 125.221 14.9428 125.31C16.165 125.577 17.6094 125.71 19.2204 125.71C23.3314 125.71 28.5535 124.821 34.8866 123.044C39.0531 121.888 46.1084 119.31 48.6084 116.511C48.6639 117.177 48.2195 118.155 47.0529 119.088Z" fill="#FFFDF3"/>
<path d="M135.833 23.0834V25C135.831 29.4926 134.376 33.8639 131.686 37.4622C128.996 41.0604 125.215 43.6927 120.907 44.9665C116.599 46.2403 111.994 46.0873 107.78 44.5304C103.566 42.9735 99.968 40.0961 97.5228 36.3273C95.0776 32.5584 93.9162 28.1002 94.2118 23.6174C94.5074 19.1346 96.2441 14.8674 99.163 11.4523C102.082 8.03717 106.027 5.65709 110.409 4.66701C114.791 3.67694 119.376 4.12991 123.479 5.95838" stroke="#FFFDF3" stroke-width="2" stroke-linecap="round" stroke-linejoin="round"/>
<path d="M135.833 8.33325L115 29.1874L108.75 22.9374" stroke="#FFFDF3" stroke-width="2" stroke-linecap="round" stroke-linejoin="round"/>
<path d="M39.5833 8.33325H10.4167C8.11548 8.33325 6.25 10.1987 6.25 12.4999V41.6666C6.25 43.9678 8.11548 45.8333 10.4167 45.8333H39.5833C41.8845 45.8333 43.75 43.9678 43.75 41.6666V12.4999C43.75 10.1987 41.8845 8.33325 39.5833 8.33325Z" stroke="#FFFDF3" stroke-width="2" stroke-linecap="round" stroke-linejoin="round"/>
<path d="M33.3333 4.16675V12.5001" stroke="#FFFDF3" stroke-width="2" stroke-linecap="round" stroke-linejoin="round"/>
<path d="M16.6667 4.16675V12.5001" stroke="#FFFDF3" stroke-width="2" stroke-linecap="round" stroke-linejoin="round"/>
<path d="M6.25 20.8333H43.75" stroke="#FFFDF3" stroke-width="2" stroke-linecap="round" stroke-linejoin="round"/>
<path d="M16.6667 29.1667H16.6875" stroke="#FFFDF3" stroke-width="2" stroke-linecap="round" stroke-linejoin="round"/>
<path d="M25 29.1667H25.0208" stroke="#FFFDF3" stroke-width="2" stroke-linecap="round" stroke-linejoin="round"/>
<path d="M33.3333 29.1667H33.3541" stroke="#FFFDF3" stroke-width="2" stroke-linecap="round" stroke-linejoin="round"/>
<path d="M16.6667 37.5H16.6875" stroke="#FFFDF3" stroke-width="2" stroke-linecap="round" stroke-linejoin="round"/>
<path d="M25 37.5H25.0208" stroke="#FFFDF3" stroke-width="2" stroke-linecap="round" stroke-linejoin="round"/>
<path d="M33.3333 37.5H33.3541" stroke="#FFFDF3" stroke-width="2" stroke-linecap="round" stroke-linejoin="round"/>
<path d="M115 135.833C115 135.833 131.667 127.5 131.667 115V100.417L115 94.1667L98.3333 100.417V115C98.3333 127.5 115 135.833 115 135.833Z" stroke="#FFFDF3" stroke-width="2" stroke-linecap="round" stroke-linejoin="round"/>
</g>
</svg>
